<svg id="visual" viewBox="0 0 960 540" width="960" height="540" xmlns="http://www.w3.org/2000/svg" xmlns:xlink="http://www.w3.org/1999/xlink" version="1.1"><path d="M0 205L20 203.3C40 201.7 80 198.3 120 189C160 179.7 200 164.3 240 144.2C280 124 320 99 360 84.3C400 69.7 440 65.3 480 78.3C520 91.3 560 121.7 600 125.7C640 129.7 680 107.3 720 109.8C760 112.3 800 139.7 840 161.2C880 182.7 920 198.3 940 206.2L960 214L960 0L940 0C920 0 880 0 840 0C800 0 760 0 720 0C680 0 640 0 600 0C560 0 520 0 480 0C440 0 400 0 360 0C320 0 280 0 240 0C200 0 160 0 120 0C80 0 40 0 20 0L0 0Z" fill="#4f46e5" stroke-linecap="round" stroke-linejoin="miter"></path></svg>